<mxfile host="app.diagrams.net" modified="2024-02-01T16:45:07.503Z" agent="Mozilla/5.0 (Windows NT 10.0; Win64; x64) AppleWebKit/537.36 (KHTML, like Gecko) Chrome/109.0.0.0 Safari/537.36" etag="6YY21vb8ZNY8gGEPsyMl" version="23.0.2" type="device">
  <diagram name="Страница — 1" id="YmnCxS01adKpA4S1NdYb">
    <mxGraphModel dx="1434" dy="762" grid="1" gridSize="10" guides="1" tooltips="1" connect="1" arrows="1" fold="1" page="1" pageScale="1" pageWidth="827" pageHeight="1169" math="0" shadow="0">
      <root>
        <mxCell id="0" />
        <mxCell id="1" parent="0" />
        <mxCell id="dqREz_byHGO7iQhBPmu8-3" style="edgeStyle=orthogonalEdgeStyle;rounded=0;orthogonalLoop=1;jettySize=auto;html=1;exitX=0.5;exitY=1;exitDx=0;exitDy=0;entryX=0.5;entryY=0;entryDx=0;entryDy=0;" edge="1" parent="1" source="mbGER0Eq1-konohnvZbH-32" target="dqREz_byHGO7iQhBPmu8-1">
          <mxGeometry relative="1" as="geometry" />
        </mxCell>
        <mxCell id="mbGER0Eq1-konohnvZbH-32" value="начало" style="rounded=1;whiteSpace=wrap;html=1;" parent="1" vertex="1">
          <mxGeometry x="20" y="20" width="120" height="60" as="geometry" />
        </mxCell>
        <mxCell id="mbGER0Eq1-konohnvZbH-50" value="конец" style="rounded=1;whiteSpace=wrap;html=1;" parent="1" vertex="1">
          <mxGeometry x="20" y="230" width="120" height="60" as="geometry" />
        </mxCell>
        <mxCell id="dqREz_byHGO7iQhBPmu8-4" style="edgeStyle=orthogonalEdgeStyle;rounded=0;orthogonalLoop=1;jettySize=auto;html=1;exitX=0.5;exitY=1;exitDx=0;exitDy=0;entryX=0.5;entryY=0;entryDx=0;entryDy=0;" edge="1" parent="1" source="dqREz_byHGO7iQhBPmu8-1" target="dqREz_byHGO7iQhBPmu8-2">
          <mxGeometry relative="1" as="geometry" />
        </mxCell>
        <mxCell id="dqREz_byHGO7iQhBPmu8-1" value="А=ввести число&lt;br&gt;B=ввести число" style="shape=parallelogram;perimeter=parallelogramPerimeter;whiteSpace=wrap;html=1;fixedSize=1;" vertex="1" parent="1">
          <mxGeometry x="20" y="90" width="120" height="60" as="geometry" />
        </mxCell>
        <mxCell id="dqREz_byHGO7iQhBPmu8-5" style="edgeStyle=orthogonalEdgeStyle;rounded=0;orthogonalLoop=1;jettySize=auto;html=1;exitX=0.5;exitY=1;exitDx=0;exitDy=0;entryX=0.5;entryY=0;entryDx=0;entryDy=0;" edge="1" parent="1" source="dqREz_byHGO7iQhBPmu8-2" target="mbGER0Eq1-konohnvZbH-50">
          <mxGeometry relative="1" as="geometry" />
        </mxCell>
        <mxCell id="dqREz_byHGO7iQhBPmu8-2" value="вывести A+B" style="rounded=0;whiteSpace=wrap;html=1;" vertex="1" parent="1">
          <mxGeometry x="20" y="160" width="120" height="60" as="geometry" />
        </mxCell>
        <mxCell id="dqREz_byHGO7iQhBPmu8-6" style="edgeStyle=orthogonalEdgeStyle;rounded=0;orthogonalLoop=1;jettySize=auto;html=1;exitX=0.5;exitY=1;exitDx=0;exitDy=0;entryX=0.5;entryY=0;entryDx=0;entryDy=0;" edge="1" parent="1" source="dqREz_byHGO7iQhBPmu8-7" target="dqREz_byHGO7iQhBPmu8-8">
          <mxGeometry relative="1" as="geometry" />
        </mxCell>
        <mxCell id="dqREz_byHGO7iQhBPmu8-7" value="начало" style="rounded=1;whiteSpace=wrap;html=1;" vertex="1" parent="1">
          <mxGeometry x="170" y="20" width="120" height="60" as="geometry" />
        </mxCell>
        <mxCell id="dqREz_byHGO7iQhBPmu8-19" style="edgeStyle=orthogonalEdgeStyle;rounded=0;orthogonalLoop=1;jettySize=auto;html=1;exitX=0.5;exitY=1;exitDx=0;exitDy=0;entryX=0.5;entryY=0;entryDx=0;entryDy=0;" edge="1" parent="1" source="dqREz_byHGO7iQhBPmu8-8" target="dqREz_byHGO7iQhBPmu8-9">
          <mxGeometry relative="1" as="geometry">
            <Array as="points">
              <mxPoint x="230" y="160" />
            </Array>
          </mxGeometry>
        </mxCell>
        <mxCell id="dqREz_byHGO7iQhBPmu8-8" value="А=ввести число&lt;br&gt;" style="shape=parallelogram;perimeter=parallelogramPerimeter;whiteSpace=wrap;html=1;fixedSize=1;" vertex="1" parent="1">
          <mxGeometry x="170" y="90" width="120" height="60" as="geometry" />
        </mxCell>
        <mxCell id="dqREz_byHGO7iQhBPmu8-14" style="edgeStyle=orthogonalEdgeStyle;rounded=0;orthogonalLoop=1;jettySize=auto;html=1;exitX=1;exitY=0.5;exitDx=0;exitDy=0;" edge="1" parent="1" source="dqREz_byHGO7iQhBPmu8-9" target="dqREz_byHGO7iQhBPmu8-11">
          <mxGeometry relative="1" as="geometry">
            <Array as="points">
              <mxPoint x="390" y="200" />
            </Array>
          </mxGeometry>
        </mxCell>
        <mxCell id="dqREz_byHGO7iQhBPmu8-15" style="edgeStyle=orthogonalEdgeStyle;rounded=0;orthogonalLoop=1;jettySize=auto;html=1;exitX=0;exitY=0.5;exitDx=0;exitDy=0;entryX=0.5;entryY=0;entryDx=0;entryDy=0;" edge="1" parent="1" source="dqREz_byHGO7iQhBPmu8-9" target="dqREz_byHGO7iQhBPmu8-10">
          <mxGeometry relative="1" as="geometry">
            <Array as="points">
              <mxPoint x="230" y="230" />
              <mxPoint x="220" y="230" />
            </Array>
          </mxGeometry>
        </mxCell>
        <mxCell id="dqREz_byHGO7iQhBPmu8-9" value="A%2=0" style="rhombus;whiteSpace=wrap;html=1;" vertex="1" parent="1">
          <mxGeometry x="230" y="160" width="150" height="80" as="geometry" />
        </mxCell>
        <mxCell id="dqREz_byHGO7iQhBPmu8-17" style="edgeStyle=orthogonalEdgeStyle;rounded=0;orthogonalLoop=1;jettySize=auto;html=1;exitX=0.5;exitY=1;exitDx=0;exitDy=0;entryX=0.5;entryY=0;entryDx=0;entryDy=0;" edge="1" parent="1" source="dqREz_byHGO7iQhBPmu8-10" target="dqREz_byHGO7iQhBPmu8-16">
          <mxGeometry relative="1" as="geometry">
            <Array as="points">
              <mxPoint x="220" y="310" />
              <mxPoint x="305" y="310" />
            </Array>
          </mxGeometry>
        </mxCell>
        <mxCell id="dqREz_byHGO7iQhBPmu8-10" value="вывести НЕЧЕТНОЕ" style="rounded=0;whiteSpace=wrap;html=1;" vertex="1" parent="1">
          <mxGeometry x="160" y="240" width="120" height="60" as="geometry" />
        </mxCell>
        <mxCell id="dqREz_byHGO7iQhBPmu8-18" style="edgeStyle=orthogonalEdgeStyle;rounded=0;orthogonalLoop=1;jettySize=auto;html=1;exitX=0.5;exitY=1;exitDx=0;exitDy=0;entryX=0.5;entryY=0;entryDx=0;entryDy=0;" edge="1" parent="1" source="dqREz_byHGO7iQhBPmu8-11" target="dqREz_byHGO7iQhBPmu8-16">
          <mxGeometry relative="1" as="geometry">
            <mxPoint x="310" y="310" as="targetPoint" />
            <Array as="points">
              <mxPoint x="390" y="310" />
              <mxPoint x="305" y="310" />
            </Array>
          </mxGeometry>
        </mxCell>
        <mxCell id="dqREz_byHGO7iQhBPmu8-11" value="вывести ЧЕТНОЕ" style="rounded=0;whiteSpace=wrap;html=1;" vertex="1" parent="1">
          <mxGeometry x="330" y="240" width="120" height="60" as="geometry" />
        </mxCell>
        <mxCell id="dqREz_byHGO7iQhBPmu8-12" value="нет" style="text;html=1;strokeColor=none;fillColor=none;align=center;verticalAlign=middle;whiteSpace=wrap;rounded=0;" vertex="1" parent="1">
          <mxGeometry x="170" y="210" width="60" height="30" as="geometry" />
        </mxCell>
        <mxCell id="dqREz_byHGO7iQhBPmu8-13" value="да" style="text;html=1;strokeColor=none;fillColor=none;align=center;verticalAlign=middle;whiteSpace=wrap;rounded=0;" vertex="1" parent="1">
          <mxGeometry x="390" y="210" width="60" height="30" as="geometry" />
        </mxCell>
        <mxCell id="dqREz_byHGO7iQhBPmu8-16" value="конец" style="rounded=1;whiteSpace=wrap;html=1;" vertex="1" parent="1">
          <mxGeometry x="245" y="320" width="120" height="60" as="geometry" />
        </mxCell>
        <mxCell id="dqREz_byHGO7iQhBPmu8-20" style="edgeStyle=orthogonalEdgeStyle;rounded=0;orthogonalLoop=1;jettySize=auto;html=1;exitX=0.5;exitY=1;exitDx=0;exitDy=0;entryX=0.5;entryY=0;entryDx=0;entryDy=0;" edge="1" parent="1" source="dqREz_byHGO7iQhBPmu8-21" target="dqREz_byHGO7iQhBPmu8-23">
          <mxGeometry relative="1" as="geometry" />
        </mxCell>
        <mxCell id="dqREz_byHGO7iQhBPmu8-21" value="начало" style="rounded=1;whiteSpace=wrap;html=1;" vertex="1" parent="1">
          <mxGeometry x="505" y="10" width="120" height="60" as="geometry" />
        </mxCell>
        <mxCell id="dqREz_byHGO7iQhBPmu8-22" style="edgeStyle=orthogonalEdgeStyle;rounded=0;orthogonalLoop=1;jettySize=auto;html=1;exitX=0.5;exitY=1;exitDx=0;exitDy=0;entryX=0.5;entryY=0;entryDx=0;entryDy=0;" edge="1" parent="1" source="dqREz_byHGO7iQhBPmu8-23" target="dqREz_byHGO7iQhBPmu8-26">
          <mxGeometry relative="1" as="geometry">
            <Array as="points">
              <mxPoint x="550" y="160" />
            </Array>
          </mxGeometry>
        </mxCell>
        <mxCell id="dqREz_byHGO7iQhBPmu8-23" value="PASS=ввести число" style="shape=parallelogram;perimeter=parallelogramPerimeter;whiteSpace=wrap;html=1;fixedSize=1;" vertex="1" parent="1">
          <mxGeometry x="490" y="90" width="150" height="60" as="geometry" />
        </mxCell>
        <mxCell id="dqREz_byHGO7iQhBPmu8-24" style="edgeStyle=orthogonalEdgeStyle;rounded=0;orthogonalLoop=1;jettySize=auto;html=1;exitX=1;exitY=0.5;exitDx=0;exitDy=0;entryX=0.5;entryY=0;entryDx=0;entryDy=0;" edge="1" parent="1" source="dqREz_byHGO7iQhBPmu8-26" target="dqREz_byHGO7iQhBPmu8-30">
          <mxGeometry relative="1" as="geometry">
            <Array as="points">
              <mxPoint x="650" y="199" />
              <mxPoint x="660" y="199" />
              <mxPoint x="660" y="230" />
              <mxPoint x="610" y="230" />
            </Array>
          </mxGeometry>
        </mxCell>
        <mxCell id="dqREz_byHGO7iQhBPmu8-34" style="edgeStyle=orthogonalEdgeStyle;rounded=0;orthogonalLoop=1;jettySize=auto;html=1;exitX=0;exitY=0.5;exitDx=0;exitDy=0;entryX=0;entryY=0.5;entryDx=0;entryDy=0;" edge="1" parent="1" source="dqREz_byHGO7iQhBPmu8-26" target="dqREz_byHGO7iQhBPmu8-23">
          <mxGeometry relative="1" as="geometry">
            <Array as="points">
              <mxPoint x="470" y="201" />
              <mxPoint x="470" y="120" />
            </Array>
          </mxGeometry>
        </mxCell>
        <mxCell id="dqREz_byHGO7iQhBPmu8-26" value="PASS=123" style="rhombus;whiteSpace=wrap;html=1;" vertex="1" parent="1">
          <mxGeometry x="500" y="160" width="150" height="80" as="geometry" />
        </mxCell>
        <mxCell id="dqREz_byHGO7iQhBPmu8-29" style="edgeStyle=orthogonalEdgeStyle;rounded=0;orthogonalLoop=1;jettySize=auto;html=1;exitX=0.5;exitY=1;exitDx=0;exitDy=0;entryX=0.5;entryY=0;entryDx=0;entryDy=0;" edge="1" parent="1" source="dqREz_byHGO7iQhBPmu8-30" target="dqREz_byHGO7iQhBPmu8-33">
          <mxGeometry relative="1" as="geometry">
            <mxPoint x="580" y="309" as="targetPoint" />
            <Array as="points">
              <mxPoint x="660" y="309" />
              <mxPoint x="575" y="309" />
            </Array>
          </mxGeometry>
        </mxCell>
        <mxCell id="dqREz_byHGO7iQhBPmu8-30" value="вывести Привет, мир!" style="rounded=0;whiteSpace=wrap;html=1;" vertex="1" parent="1">
          <mxGeometry x="550" y="250" width="120" height="60" as="geometry" />
        </mxCell>
        <mxCell id="dqREz_byHGO7iQhBPmu8-31" value="нет" style="text;html=1;strokeColor=none;fillColor=none;align=center;verticalAlign=middle;whiteSpace=wrap;rounded=0;" vertex="1" parent="1">
          <mxGeometry x="470" y="160" width="60" height="30" as="geometry" />
        </mxCell>
        <mxCell id="dqREz_byHGO7iQhBPmu8-32" value="да" style="text;html=1;strokeColor=none;fillColor=none;align=center;verticalAlign=middle;whiteSpace=wrap;rounded=0;" vertex="1" parent="1">
          <mxGeometry x="660" y="209" width="60" height="30" as="geometry" />
        </mxCell>
        <mxCell id="dqREz_byHGO7iQhBPmu8-33" value="конец" style="rounded=1;whiteSpace=wrap;html=1;" vertex="1" parent="1">
          <mxGeometry x="515" y="319" width="120" height="60" as="geometry" />
        </mxCell>
        <mxCell id="dqREz_byHGO7iQhBPmu8-66" style="edgeStyle=orthogonalEdgeStyle;rounded=0;orthogonalLoop=1;jettySize=auto;html=1;exitX=0.5;exitY=1;exitDx=0;exitDy=0;entryX=0.5;entryY=0;entryDx=0;entryDy=0;" edge="1" parent="1" source="dqREz_byHGO7iQhBPmu8-36" target="dqREz_byHGO7iQhBPmu8-55">
          <mxGeometry relative="1" as="geometry" />
        </mxCell>
        <mxCell id="dqREz_byHGO7iQhBPmu8-36" value="начало" style="rounded=1;whiteSpace=wrap;html=1;" vertex="1" parent="1">
          <mxGeometry x="395" y="490" width="120" height="60" as="geometry" />
        </mxCell>
        <mxCell id="dqREz_byHGO7iQhBPmu8-58" style="edgeStyle=orthogonalEdgeStyle;rounded=0;orthogonalLoop=1;jettySize=auto;html=1;exitX=0.5;exitY=1;exitDx=0;exitDy=0;entryX=0.5;entryY=0;entryDx=0;entryDy=0;" edge="1" parent="1" source="dqREz_byHGO7iQhBPmu8-38" target="dqREz_byHGO7iQhBPmu8-41">
          <mxGeometry relative="1" as="geometry">
            <Array as="points">
              <mxPoint x="520" y="820" />
              <mxPoint x="410" y="820" />
            </Array>
          </mxGeometry>
        </mxCell>
        <mxCell id="dqREz_byHGO7iQhBPmu8-38" value="PASS=ввести число" style="shape=parallelogram;perimeter=parallelogramPerimeter;whiteSpace=wrap;html=1;fixedSize=1;" vertex="1" parent="1">
          <mxGeometry x="445" y="750" width="150" height="60" as="geometry" />
        </mxCell>
        <mxCell id="dqREz_byHGO7iQhBPmu8-61" style="edgeStyle=orthogonalEdgeStyle;rounded=0;orthogonalLoop=1;jettySize=auto;html=1;exitX=0;exitY=0.5;exitDx=0;exitDy=0;entryX=0.5;entryY=0;entryDx=0;entryDy=0;" edge="1" parent="1" source="dqREz_byHGO7iQhBPmu8-41" target="dqREz_byHGO7iQhBPmu8-59">
          <mxGeometry relative="1" as="geometry">
            <Array as="points">
              <mxPoint x="320" y="540" />
              <mxPoint x="240" y="540" />
            </Array>
          </mxGeometry>
        </mxCell>
        <mxCell id="dqREz_byHGO7iQhBPmu8-64" style="edgeStyle=orthogonalEdgeStyle;rounded=0;orthogonalLoop=1;jettySize=auto;html=1;exitX=1;exitY=0.5;exitDx=0;exitDy=0;entryX=0.5;entryY=0;entryDx=0;entryDy=0;" edge="1" parent="1" source="dqREz_byHGO7iQhBPmu8-41" target="dqREz_byHGO7iQhBPmu8-62">
          <mxGeometry relative="1" as="geometry">
            <Array as="points">
              <mxPoint x="490" y="880" />
            </Array>
          </mxGeometry>
        </mxCell>
        <mxCell id="dqREz_byHGO7iQhBPmu8-41" value="PASS==1234" style="rhombus;whiteSpace=wrap;html=1;" vertex="1" parent="1">
          <mxGeometry x="335" y="840" width="150" height="80" as="geometry" />
        </mxCell>
        <mxCell id="dqREz_byHGO7iQhBPmu8-67" style="edgeStyle=orthogonalEdgeStyle;rounded=0;orthogonalLoop=1;jettySize=auto;html=1;exitX=0.5;exitY=1;exitDx=0;exitDy=0;entryX=0.5;entryY=0;entryDx=0;entryDy=0;" edge="1" parent="1" source="dqREz_byHGO7iQhBPmu8-43" target="dqREz_byHGO7iQhBPmu8-44">
          <mxGeometry relative="1" as="geometry" />
        </mxCell>
        <mxCell id="dqREz_byHGO7iQhBPmu8-43" value="отказать клиенту" style="rounded=0;whiteSpace=wrap;html=1;" vertex="1" parent="1">
          <mxGeometry x="180" y="950" width="120" height="60" as="geometry" />
        </mxCell>
        <mxCell id="dqREz_byHGO7iQhBPmu8-44" value="конец" style="rounded=1;whiteSpace=wrap;html=1;" vertex="1" parent="1">
          <mxGeometry x="314" y="1040" width="120" height="60" as="geometry" />
        </mxCell>
        <mxCell id="dqREz_byHGO7iQhBPmu8-52" style="edgeStyle=orthogonalEdgeStyle;rounded=0;orthogonalLoop=1;jettySize=auto;html=1;exitX=0;exitY=0.5;exitDx=0;exitDy=0;entryX=0.5;entryY=0;entryDx=0;entryDy=0;" edge="1" parent="1" source="dqREz_byHGO7iQhBPmu8-45" target="dqREz_byHGO7iQhBPmu8-43">
          <mxGeometry relative="1" as="geometry" />
        </mxCell>
        <mxCell id="dqREz_byHGO7iQhBPmu8-57" style="edgeStyle=orthogonalEdgeStyle;rounded=0;orthogonalLoop=1;jettySize=auto;html=1;exitX=1;exitY=0.5;exitDx=0;exitDy=0;entryX=0.5;entryY=0;entryDx=0;entryDy=0;" edge="1" parent="1" source="dqREz_byHGO7iQhBPmu8-45" target="dqREz_byHGO7iQhBPmu8-38">
          <mxGeometry relative="1" as="geometry">
            <Array as="points">
              <mxPoint x="540" y="700" />
              <mxPoint x="540" y="730" />
              <mxPoint x="520" y="730" />
            </Array>
          </mxGeometry>
        </mxCell>
        <mxCell id="dqREz_byHGO7iQhBPmu8-45" value="N&amp;gt;0" style="rhombus;whiteSpace=wrap;html=1;" vertex="1" parent="1">
          <mxGeometry x="365" y="660" width="155" height="80" as="geometry" />
        </mxCell>
        <mxCell id="dqREz_byHGO7iQhBPmu8-46" value="нет" style="text;html=1;strokeColor=none;fillColor=none;align=center;verticalAlign=middle;whiteSpace=wrap;rounded=0;" vertex="1" parent="1">
          <mxGeometry x="325" y="660" width="60" height="30" as="geometry" />
        </mxCell>
        <mxCell id="dqREz_byHGO7iQhBPmu8-47" value="да" style="text;html=1;strokeColor=none;fillColor=none;align=center;verticalAlign=middle;whiteSpace=wrap;rounded=0;" vertex="1" parent="1">
          <mxGeometry x="490" y="655" width="60" height="30" as="geometry" />
        </mxCell>
        <mxCell id="dqREz_byHGO7iQhBPmu8-50" value="нет" style="text;html=1;strokeColor=none;fillColor=none;align=center;verticalAlign=middle;whiteSpace=wrap;rounded=0;" vertex="1" parent="1">
          <mxGeometry x="320" y="830" width="60" height="30" as="geometry" />
        </mxCell>
        <mxCell id="dqREz_byHGO7iQhBPmu8-51" value="да" style="text;html=1;strokeColor=none;fillColor=none;align=center;verticalAlign=middle;whiteSpace=wrap;rounded=0;" vertex="1" parent="1">
          <mxGeometry x="475" y="850" width="60" height="30" as="geometry" />
        </mxCell>
        <mxCell id="dqREz_byHGO7iQhBPmu8-56" style="edgeStyle=orthogonalEdgeStyle;rounded=0;orthogonalLoop=1;jettySize=auto;html=1;exitX=0.5;exitY=1;exitDx=0;exitDy=0;entryX=0.5;entryY=0;entryDx=0;entryDy=0;" edge="1" parent="1" source="dqREz_byHGO7iQhBPmu8-55" target="dqREz_byHGO7iQhBPmu8-45">
          <mxGeometry relative="1" as="geometry" />
        </mxCell>
        <mxCell id="dqREz_byHGO7iQhBPmu8-55" value="N=3 попытки" style="rounded=0;whiteSpace=wrap;html=1;" vertex="1" parent="1">
          <mxGeometry x="395" y="565" width="120" height="55" as="geometry" />
        </mxCell>
        <mxCell id="dqREz_byHGO7iQhBPmu8-60" style="edgeStyle=orthogonalEdgeStyle;rounded=0;orthogonalLoop=1;jettySize=auto;html=1;exitX=0.5;exitY=1;exitDx=0;exitDy=0;entryX=0.5;entryY=0;entryDx=0;entryDy=0;" edge="1" parent="1" source="dqREz_byHGO7iQhBPmu8-59" target="dqREz_byHGO7iQhBPmu8-45">
          <mxGeometry relative="1" as="geometry" />
        </mxCell>
        <mxCell id="dqREz_byHGO7iQhBPmu8-59" value="N-=1" style="rounded=0;whiteSpace=wrap;html=1;" vertex="1" parent="1">
          <mxGeometry x="180" y="560" width="120" height="60" as="geometry" />
        </mxCell>
        <mxCell id="dqREz_byHGO7iQhBPmu8-65" style="edgeStyle=orthogonalEdgeStyle;rounded=0;orthogonalLoop=1;jettySize=auto;html=1;exitX=0.5;exitY=1;exitDx=0;exitDy=0;entryX=0.5;entryY=0;entryDx=0;entryDy=0;" edge="1" parent="1" source="dqREz_byHGO7iQhBPmu8-62" target="dqREz_byHGO7iQhBPmu8-44">
          <mxGeometry relative="1" as="geometry" />
        </mxCell>
        <mxCell id="dqREz_byHGO7iQhBPmu8-62" value="дать денег кожаному" style="rounded=0;whiteSpace=wrap;html=1;" vertex="1" parent="1">
          <mxGeometry x="430" y="940" width="120" height="60" as="geometry" />
        </mxCell>
      </root>
    </mxGraphModel>
  </diagram>
</mxfile>
